<!-- Generated by IcoMoon.io -->
<svg version="1.1" xmlns="http://www.w3.org/2000/svg" width="32" height="32" viewBox="0 0 32 32">
<title>untitled</title>
<path d="M20.656 7.313q-1.094 0-1.875-0.781t-0.781-1.875 0.781-1.875 1.875-0.781 1.875 0.781 0.781 1.875-0.781 1.875-1.875 0.781zM6.656 16q2.781 0 4.719 1.938t1.938 4.719-1.938 4.719-4.719 1.938-4.719-1.938-1.938-4.719 1.938-4.719 4.719-1.938zM6.656 27.313q1.906 0 3.281-1.375t1.375-3.281-1.375-3.281-3.281-1.375-3.281 1.375-1.375 3.281 1.375 3.281 3.281 1.375zM14.375 14l2.938 3.063v8.25h-2.625v-6.625l-4.313-3.75q-0.75-0.625-0.75-1.875 0-1.063 0.75-1.875l3.75-3.75q0.625-0.75 1.875-0.75 1.125 0 2.125 0.75l2.563 2.563q2 2 4.75 2v2.688q-4 0-6.75-2.813l-1.063-1.063zM25.344 16q2.781 0 4.719 1.938t1.938 4.719-1.938 4.719-4.719 1.938-4.719-1.938-1.938-4.719 1.938-4.719 4.719-1.938zM25.344 27.313q1.906 0 3.281-1.375t1.375-3.281-1.375-3.281-3.281-1.375-3.281 1.375-1.375 3.281 1.375 3.281 3.281 1.375z"></path>
</svg>
