<!-- Generated by IcoMoon.io -->
<svg version="1.1" xmlns="http://www.w3.org/2000/svg" width="24" height="32" viewBox="0 0 24 32">
<title>untitled2</title>
<path d="M21.25 8l2.75 8v10.688q0 0.5-0.406 0.906t-0.906 0.406h-1.375q-0.5 0-0.906-0.406t-0.406-0.906v-1.375h-16v1.375q0 0.5-0.406 0.906t-0.906 0.406h-1.375q-0.5 0-0.906-0.406t-0.406-0.906v-10.688l2.75-8q0.5-1.313 1.938-1.313h14.625q1.438 0 1.938 1.313zM4.656 21.313q0.844 0 1.438-0.563t0.594-1.406-0.594-1.438-1.438-0.594-1.406 0.594-0.563 1.438 0.563 1.406 1.406 0.563zM19.344 21.313q0.844 0 1.406-0.563t0.563-1.406-0.563-1.438-1.406-0.594-1.438 0.594-0.594 1.438 0.594 1.406 1.438 0.563zM2.688 14.688h18.625l-2-6h-14.625z"></path>
</svg>
