<!-- Generated by IcoMoon.io -->
<svg version="1.1" xmlns="http://www.w3.org/2000/svg" width="17" height="32" viewBox="0 0 17 32">
<title>untitled6</title>
<path d="M10 7.313q-1.125 0-1.906-0.781t-0.781-1.875 0.781-1.875 1.906-0.781 1.906 0.781 0.781 1.875-0.781 1.875-1.906 0.781zM5.063 11.875l-3.75 18.813h2.813l2.438-10.688 2.75 2.688v8h2.688v-10l-2.813-2.688 0.813-4q2.875 3.313 7.313 3.313v-2.625q-1.813 0-3.344-0.906t-2.344-2.344l-1.375-2.125q-0.875-1.313-2.25-1.313-0.188 0-0.531 0.063t-0.531 0.063l-6.938 2.938v6.25h2.688v-4.5l2.375-0.938z"></path>
</svg>
